<mxfile host="65bd71144e">
    <diagram id="mV23AwLAaohwka5bfPBr" name="Page-1">
        <mxGraphModel dx="1386" dy="825" grid="1" gridSize="10" guides="1" tooltips="1" connect="1" arrows="1" fold="1" page="1" pageScale="1" pageWidth="850" pageHeight="1100" math="0" shadow="0">
            <root>
                <mxCell id="0"/>
                <mxCell id="1" parent="0"/>
                <mxCell id="2" value="&lt;span style=&quot;-webkit-user-drag: none; -webkit-tap-highlight-color: transparent; margin: 0px; padding: 0px; user-select: text; cursor: move; left: 0px; position: relative; display: inline-block; text-indent: 0px; top: 2px; color: rgb(0, 0, 0); font-family: &amp;quot;Segoe UI&amp;quot;, &amp;quot;Segoe UI Web&amp;quot;, Arial, Verdana, sans-serif; font-size: 12px; font-style: normal; font-variant-ligatures: normal; font-variant-caps: normal; font-weight: 400; letter-spacing: normal; orphans: 2; text-align: left; text-transform: none; widows: 2; word-spacing: 0px; -webkit-text-stroke-width: 0px; background-color: rgb(255, 255, 255); text-decoration-thickness: initial; text-decoration-style: initial; text-decoration-color: initial; width: 572px; height: 465px; transform: rotate(0deg);&quot; role=&quot;presentation&quot; class=&quot;WACImageContainer NoPadding DragDrop BlobObject SCXW161230754 BCX0&quot;&gt;&lt;img style=&quot;-webkit-user-drag: none; -webkit-tap-highlight-color: transparent; margin: 0px; padding: 0px; user-select: text; border: none; vertical-align: baseline; width: 572px; height: 465px;&quot; src=&quot;data:image/png;base64,iVBORw0KGgoAAAANSUhEUgAAApAAAAHqCAYAAACz5H5qAAAAAXNSR0IArs4c6QAAAARnQU1BAACxjwv8YQUAAAAJcEhZcwAADsMAAA7DAcdvqGQAACtvSURBVHhe7d1PbFznfS/83wjVQtCiQFXwipC90FvnOptsvBIFBErUGIhvgAYRY6Oi0gK5ArLxzlFW+tNUolZRvPPmAkY2LynABhUgwFujqK4QNyhpNCmdREmQhX3ZWAJIcM80VyOK73nOHFLUzHMoHpE2OTOfT3DAOWcOh994hvTXz/nztNYKAQAA23Sg+goAANuiQAIA0MjGIewfvDVdbtjK916fqB4BADCsniiQ3/nW18qNOf/r//3/FEgAABzCBgCgmScK5H/96U/xpz/93+xXAABIniyQf/xTHD3632L06NEnvqbtAACQPFEgV1b+GHfv/q5nSdsBACB5okD+8Y//FX/8r2LJfAUAgOTJEcg//jFWVv4r81WBBACgw30gAQBoxFzYAAA08sQhbAAAeBoFEgCARhRIAAAaUSABAGhEgQQAoJFWsbgKGwCAbdvyNj5LS0tx9OjRai3v4cOH5dc/+7M/K7/W2e39Evl6yZcnX5589eTrJV+efHny1RuEfA5hAwDQiAIJAEAjCiQAAI0okAAANKJAAgDQiAIJAEAjCiQAAI202u127X0gl5eXY2RkpFrL28v7FMnXS748+fLkqydfL/ny5MuTr94g5DMCCQBAI2aiqciXJ189+XrJlydfnnz15OslX95e5TMCCQBAIwokAACNKJAAADSiQAIA0IgCCQBAIwokAACNKJAAADRiJpqKfHny1ZOvl3x58uXJV0++XvLl7VU+I5DAMzt48OATy6FDh8qle3tuOXbsWHb75mW7r7fb+6VFvs4CkGMmmop8efLVk6/4A9JqxRZ/Quhz3e/vfvv8dZMvT748+eptJ58RSAAAGlEgAQBoRIEEAKARBRLYVT94a/qpCwD9TYEEdt13vvW1jeX82a/G33/zK/G3f3Mqxl85We0BQD9TIIFPzerqozhy5Ei02+1oP2xvXAUIQH9TIIFPxerqalkckwepQD5ox4NiAaD/mYmmIl+efPXk69xIvPs+kOkcx/NnX4kjR/6i2vLY/Ie/jtv/dje+9/pEtYX9LN0Hcv0/ApL99vnrJl+efHny1dtOPiOQwK5rtx/EJ5/cj48/XijX7979XfzH/K/KUUgA+p+ZaCry5clXT778TDRpBPLs10+Vh60fth/Giy9+rhx5TOWxXbzO7IcfGYHsE2aika+OfL2GLZ8RSGDXbT7ncb4aeUzbnAMJMBgUSGDXzfzTbPzk9s/jvfc/jNuzv4n3f/77mPvlx/GL3/6h2gOAfqZAArsqHZ5+2gJAf1MggaExd60V4zeXqjUAnpUCCQBAIwokMJw+uB6t16Zj+lqrvNq41boec/enY7x8/ORI5dLN8WqftIzH9P3qiZiL6+vbr10vHm96btNrla9dbQYYBAokMLzePRcLL6/F2tpiTL16KU4+vxAX1or1ucm4NfF2p/QVRXN04qWYTduLZfbqrTj3o04dnLt2Mi5dnS23L74wH5fKrUlRLJ8/Fy/NrX9P8dpFWXXwHBgUCiQwxCbj9In09Wgc/0LEmenzMZZWnzseZ9LX5MTFogRe7GwvHH9h/Zm5uHPlTEx9u/PM0bMXilerfHCnKJPrrx0x9u2pOPPuQnRuqw7Q/1pLS0vFfyDn7yW+srIShw8frtbyHj16VH49cGDrLprbLx3a2fyz03qaPzdZ3697n83kk0++vc2XbjRb9/P3o3QRzY0XFmPm7NHOIew3j8fiOxNFfex6Lh1+LkcjU3FciunXRuPcu53XKKVRx28vFPvMxPi9mZh4Lm1Mh7NvxPG0fr947bHH45EdRdnc2Lc/pPd4cXFx47Hfjzz58uQb7HxmoqnIlydfPfm2/gO0Hz1LgTx+czxGfzy+sV86H3L0owuxdjkeF8Zcgdz02v2q+/3db5+/bvLlyZcnX73t5Nu61gKwyVy8PXGrejwWpzedD7l088bjcyBPnI7Jd8/F2x90VjsX4biQBhgcCiTAFspzG4syONpKV1PfidNzkxF3F8oLYsYuz8bklZPlSN3rMf74HMiiXF68NxXzY52rsEcnIqbuPT6PEqDfKZDA0Bi7vNY5RJ2ki2M2HWJ+4rnnJmJm48KZogyuda6mLi+meeL7Hj83c3whLsVLcXz9HMfyNda/r7/OfQR4GgUS4Jmki2vW7/NYLGPzRhmBoaFAAjyTozHxzvoIo1FGYLgokAAANKJAAgDQSKvdbtfexG15eTlGRkaqtby9vE+RfL3ky5Mvb6c/9+DBg+XhWwZTOrez+HdEtbb/Pn/d5MuTL0++etvJZwQSAIBGzERTkS9Pvnry9d9MNDTT/f7ut89fN/ny5MuTr9528hmBBACgEQUSAIBGFEgAABpRIAEAaESBBACgEQUSAIBGFEgAABoxE01Fvjz56slnJppBZyYa+erI12vY8hmBBHYklQzLYC4AdcxEU5EvT7568vUa9HypVD3LzCyfVb5u8tWTr5d8efLlGYEEAKARBRIAgEYUSAAAGlEgAQBoRIEEAKARBRIAgEYUSAAAGjETTUW+PPnqyddr0POlmXeeZWaWzypfN/nqyddLvjz58oxAAmzTqVOnqkcAw81MNBX58uSrJ1+vQc9nJhr5cuTLk6/eIOQzAgkAQCMKJAAAjSiQAAA0okACANCIAgkAQCMKJAAAjSiQAAA0okACANBIa2lpqfZe4isrK3H48OFqLe/Ro0fl1wMHtu6iuf26b8qb1ldXV8vH6/t177OZfPLJt7f5nnajWfrf4uJi+XU/fv78/son397lMxNNRb48+erJt/UfIPpf9/u73z5/3eTLky9Pvnrbybd1rQUAgC4KJAAAjSiQAAA0okACu+oHb00/dQGgvymQwK77zre+trH8z7Nfjb//5l/H3/7NqRh/5WS1BwD9TIEEPjWrq4/iL48ciXb7YbQftjeuAgSgvymQwKci3XOs3W6Xjx8UX9sP2vGgWADof63iD3ztTdyWl5djZGSkWsvby/sUyddLvjz58nb6cw8ePNhzH8h0juP5s6/EkSN/UW15bP7DX8ftf7sb33t9otrCfpbuA7n+HwHJfvv8dZMvT748+eptJ58RSGDXtdsP4pNP7sfH/2ehXL9793fxH/O/KkchAeh/ZqKpyJcnXz358jPRpBHIs18/VR62fth+GC+++Lly5DGVx3bxOrMffmQEsk+YiUa+OvL1GrZ8RiCBXdc55/Fhec7jfDXymLY5BxJgMCiQwK6b+afZ+Mntf4/33v8wbs/+Jt7/+e9j7pcfxy9++4dqDwD6mQIJ7Kp0ePppCwD9TYEEBtv96RhvtWL85lK1oWPuWu+2bStf83rMVasAw0aBBIbCrYm3FT6AXaJAAkNgMiavXoqT1+oq5Fxcb7XKq47Lpdqve5Ry6eb4xnPJQlovv2c8pu9XGwvlfhuvt/7cUky/Vrzea53nrn9Q7grQlxRIYCicvjwbk1duPFH0OlKxOxnz04vlLWvW7k3FmWq/sZcn49aP7xR7dPa78+NbMfnyWLkWcSnOfXSh/J7F6Yhzb0x39vvgeoxOvBSz6bWKZfbqrTj3o8el89YXOt9z8US1AaAPmYmmIl+efPXky89Es++k8xWfX4gLaxfj+M3xGP3xeCy+MxEL11px44XFmDnbfa+zNBp5I47fm4mJSN87E+MbjzuvM1a+ZrX9ua7vKdcfS6ORo6loXj5eFNXRmPlG7mfuT2mk1Ew08uXI12vY8hmBBIbG0bNvxVSci7e7Dx9/cH3TIeeTcanaHM+djvFXb8XC/aII/mwmbl09HevjjxEvxfGustjROVS9/nqjE7eq7R0vHe+P8giwFTPRVOTLk6+efPmZaPadTSOQZflLZbF4kM6JnC9HIBfielEaY279sPKTo4nrI4izcTLuvFzt0z0CuWn99M8ej3Kmf/rdI5ALb/TP4evu93e/ff66yZcnX5589baTzwgkMFxOXIzZojxeulKtd1m6eePxCGTh6BfH48yVk3HyymScfqL43YqZn1VnR6bRyVfH43TPiORcvN01AgkwCBRIYOiMpQtqqsfFWpyfPhOXxjqHnF+PCzFVHbYulYexi69PHL5OJmO82LtzmPqlmK1GHI+evRCT756L0WJ7q3UnTs8VP+nuQnUhDsBgcAi7Il+efPXk65ND2Dwzh7DlqyNfr2HLZwQSAIBGFEgAABpRIAEAaESBBACgETPRVOTLk6+efH0yEw3PLF1EYyYa+XLk6zVs+YxAAgDQiNv4VOTLk6+efG7jM+jcxke+OvL1GrZ8RiABAGhEgQQAoBEFEgCARhRIAAAaUSABAGhEgQQAoBEFEgCARhRIAAAaaS0tLdXeS3xlZSUOHz5creU9evSo/HrgwNZdNLdf901q0/rq6mr5eH2/rW5ULJ988u1tvqfdaJb+t7i4WH7dj58/v7/yybd3+cxEU5EvT7568vUa9Hzdf3D3W75u8tWTr5d8efLlbV1rAQCgiwIJAEAjCiQAAI0okAAANKJAAgDQiAIJAEAjCiQAAI202u127X0gl5eXY2RkpFrL28v7FMnXS748+fLkq5fLd/DgwSj+ZlZr+y9fN/nqyddLvjz58oxAAmzTqVOnqkcAw81MNBX58uSrJ1+vQc9nJhr5cuTLk6/eIOQzAgkAQCMKJAAAjSiQAAA0okACANCIAgkAQCMKJAAAjSiQAAA0Yiaainx58tWTr9eg5zMTjXw58uXJV28Q8hmBBJ5ZKlSbl0OHDpVL9/bccuzYsez2zct2X2+390tLLl/3/+fd/rnb3S8tn9U/P4AcM9FU5MuTr558vTOzMFiedeadxO9HL/ny5Mvb7/mMQAIA0IgCCQBAIwokAACNKJDArvrBW9NPXQDobwoksOu+862vbSznz341/v6bX4m//ZtTMf7KyWoPAPqZAgl8alZXH8WRI0fKeye2H7Y3rgIEoL8pkMCnYnV1deOm2w9SgXzQjgfFAkD/MxNNRb48+erJ17mpdvd9INM5jufPvhJHjvxFteWx+Q9/Hbf/7W587/WJagv7WboP5LPMvJP4/eglX558efs9nxFIYNe12w/ik0/ux8cfL5Trd+/+Lv5j/lflKCQA/c9MNBX58uSrJ19+Jpo0Ann266fKw9YP2w/jxRc/V448pvLYLl5n9sOPjED2CTPRyFdHvl7Dls8IJLDrNp/zOF+NPKZtzoEEGAwKJLDrZv5pNn5y++fx3vsfxu3Z38T7P/99zP3y4/jFb/9Q7QFAP1MggV2VDk8/bQGgvymQwOC5Px3jrfGYvl+tV+autWL85lK1tnNLN8ej9dp0LBX/m36tFdc/qJ4AGHAKJMCOHY2Jd9bi4olqFWDAKZDAkOqMGqYrjdPyxOjhB9c3ttc/Nx5vf1Rt2zwCWY5+Xo/r1/LfX45aVt9//Vrx+Npc9QxA/1AggaE0d200zn1htrxNzdrcZFwaqw55pwI4Nh9T94rtxXOL02fi0pvpMPX6c5dici4991Ycv3srbc24FPMvLJbfP3u1WNv0/ekU0M5rX4i4Uvf9APubAgkMqFtx7vnHo4BpOXmleirm4k7xePLlsc7qifMx9eqtWEgF8rmJmFmbiYnnOk8dPf5S50FyfyFuvToV58tD1Udj4o3JcnOvMzH+xc491MZefrzP0s9m4tbVC9Vrj8X5opwC9KPW0tJS8R/J+XuJr6ysxOHDh6u1vEePHpVfDxzYuovm9kt/0Df/7LSe5s9N1vfr3mcz+eSTb2/zpRvN1v38PZVGCp+fifF7j4tgki6iufHCYsycXYjrrZNxqdq+7sx0eu5oud/jslkoSuPiOxMRN8dj9Mfj5eOyHqbD2W8eL9ZPx53XRmPhjbW4+Fz62QtxYe1iURE37zMRC+l1YzbWLneKazqcPfrRhY31/Sa9x4uLixuP/X7kyZcn32DnS99cq/jDUT2ql+bSTsvT7PZ+iXy9trtfIl+v7e6XyFf+5ake7TP3ptbOxJm1qXvVemX2aqwVJTE9WpvMPF+amyz+f00We1TS+qtTa+U/zc2Pk431xbWpV2Ntcq7YVv7s/PcvTp9Zi6sbz/Ss7zfd7+92Py+J349e290vka/XdvdL5Ou13f2S7eTbutYCDKSxOH31Vpz7UXUBS3nhS+42PEsx/eamccoTp2Py3XPxdrlf13PbcPSL43Hmyo3q9kJz8faEcyCB/qRAAkNp7PJiTN09WR7GaT1/LmJ6sXMbnvJ8yEtxMm1vvR7xxlSceXchFjrfFRfLC27Sc6Ox8I3iuXL7Nj03EW9NR3Vu5p047hxIoE+10jBk9biHych7yZcnX96g59vqHBqeJt36ZzRmvtE573I/6n5/99vnr5t8efLlyVdvO/mMQAJ8Vp64v2TnNkL7tTwCbEWBBPisnLhYjuhtLPv06muAp1EgAQBoRIEEAKCRVronUPW4x/LycoyMjFRreXt5kqd8veTLky9vpz/34MGDLqIZYOlczeLfEdXa/vv8dZMvT748+eptJ58RSAAAGnEbn4p8efLVk89tfAad2/jIV0e+XsOWzwgkAACNKJAAADSiQAIA0IgCCQBAIwokAACNKJAAADSiQAIA0IiZaCry5clXTz4z0Qw6M9HIV0e+XsOWzwgksCOpZFgGcwGoYyaainx58tWTr9eg50ul6llmZvms8nWTr558veTLky/PCCQAAI0okAAANKJAAgDQiAIJAEAjCiQAAI0okAAANKJAAgDQiJloKvLlyVdPvl6Dni/NvPMsM7N8Vvm6yVdPvl7y5cmXZwQS2NL7778fn//85+PQoUNlgdpqSftsZ7+0HDt2LLt987Ld19vt/dKSy/fnf/7nT6zv9s/d7n5p+az++b3wwgvlZwBgMzPRVOTLk6/esOT76U9/Gt///vfj9u3b+zJfsp//+SX9nO/LX/5y/MM//EN86Utf2pf5NpMvT748+eptJ58RSAAAGlEgAQBoRIEEAKARBRIAgEYUSAAAGlEgAQBoRIEEAKARBRIAgEZaS0tLtfcSX1lZicOHD1dreY8ePSq/HjiwdRfN7ddqtWLzz07rq6ur5eP1/br32Uw++fYy3+joaPWIQXLhwoX47ne/u+Xn74c//GHcuHGjWmOQLC4uVo/8/ZOvQ748M9FU5MuTr95Wv3z0p3/8x38sv6aZV7b6/G3ej8HR/Tu9l39f/H3uJV/eXuXbutYCAEAXBRIAgEYUSAAAGnEOZEW+PPnq5c6B/MFb09Wjet97faJ6xH6zk3Mgvff9zzmQ8uXIl2cEEnbZd771tY3l/Nmvxt9986/j7NdPxfgrJ6s9GFTd7/3ff/Mr8bfpvf8f3ntgsCiQ8ClJt0w4cuRIPGw/jHZaqv/6Y/Ctrj4q3/t2u12+/2kBGCQKJHwKUnl88KBdPk5fHxRFol2tM9jSe99uPygfp/f9wYMHG58FgEFxIB0Tr1vSzSlz2/fLIt/OFvl2ttRZH3kcHe2cP/JXf3U8Pv/i54xA9on1z91Wn7/0XM76yOP6uUN/9f8U7/3n/7v3vo/k3u+9WPx93tki386W7eQzAgm7LI063bt3Pz7+eKFcv3v3dzE//2ujUEMgHbL+JL33/2fze/8ro8/AwDmQrsapW9J0N7nt+2WRb2eLfDtb6nSf85i+psV5cP1h/XO31ecvPZfTfc7j+nu//llg/8u933ux+Pu8s0W+nS3byWcEEnZZec5jsaRRpzT61Fl/EA+q8+IYXBvvdfH1P6qRx/XPA8AgUSBhl828Nxs/uf3v8d77H8bt2d/Ev/789zH3y4/jF7/9pNqDQdV5739evvf/u3jv39947/9Q7QEwGNxIvCJfnnz1cjcSp7/t5Ebi9D83EpcvR748I5AwpOautcp/YfYu12Ou2mfb7k/H+LN8H5+J9F6P31yq1gB2ToGEITV2ea0cbVlbm43JYn1ybn39Yox1dgGALAUS6FWOKHaPSC7F9GutuP5BuVKYi+ut8Zi+X3x9/lzciktx0ijk/vfB9Wi9Nh3TGyPQxXu26f3ePFK5dHO82ict6b2unijf+2r7tevV56B6KvvZAQaNAgl06RTCl6oRydmrRTEsCsdSHI2Jd2YjxjqlYOnmjWLXmZh4biwu3puKMzEZs0Yv+8O752Lh5fT+LsbUq8X7+/xCXEijz3OTcWvi7U7pK4rm6MRLxXu6/jm4Fed+1KmDc9dOxqWrs+X2xRfmi/90WFf32QEGjZloPsVFvp0t+z3fwPrgTlEIJuP0ic7q2LeLcvjuQnRujV2UxaJDnHxtPF7/8Xicr/YZJOufu60+f+m5/rb+/h6N41+IODN9vlP8nzte/IdA5cTFogQ+/g+C4y+sPzMXd66cialvd545evZCeQpEacvPTn/Ivd97sfj7vLNFvp0t28lnBBLISIejq8OQ5eHp+VhYP0R54nxMFVteemOiqB/0pVePx/HqYb3OKQvrh7BHJ251Nt9fKD4NW9niswMMDDPRfIqLfDtb9nu+gfbqVCxWhy47SzpU3Xlq6ebrMfONqY1D2YNm/XO31ecvPTfo0vt8rvhPhfXPweJ0NQL53PF4qfMob4vPTj/Ivd97sfj7vLNFvp0t28lnBBJ40onTMfnuuXi7ulimcyFFVRbvT5eHrt86O9E5lH1tECskvebi7fURyBiL05vOh0znwm6cA7nVZwcYKAok0KVzUcz82Pqhy4ipe+lcuHSBxEyMv1kduj5xMWbjZOeq3XJUKh26VBYGRXluY1EGR8vD0Xfi9NxkxN2F8oKYscuzMXnlZPn5eD3GH58DWfvZAQaNmWgq8uXJVy/9C3KLXx/6kJlonkG6LVDREAfhCvzu3+m9/Pvi73Mv+fL2Kp8RSAAaePLimtbYvFFGGEIKJAANpPuB9u9FMsDuUCABAGhEgQQAoJFWu92uvQpgeXk5RkZGqrW8vTzJU75e8uV9GvkOHjzoIpoBky6OSTMwXL58ecvP37Vr18r7pLmIZrCkczqLfydWa3v798Xf517y5e1VPiOQAAA04jY+Ffny5KvnNj6Dx218hpvb+MiXI1+eEUgAABpRIAEAaESBBACgEQUSAIBGFEgAABpRIAEAaESBBACgEQUSAIBGWktLS7X3El9ZWYnDhw9Xa3lp2q8kTeu1ldx+3TdtTeurq6vl4/X9trpZs3zy7WW+0dHR6hGD5MKFC/Hd7353y8/fD3/4w7hx40a1xiBZXFysHvn7J1+HfHlmoqnIlydfvWHJ99Of/jS+//3vx+3bt/dlvmQ///NL+jnfl7/85XLGnS996Uv7Mt9m8uXJlydfve3k27rWAgBAFwUSAIBGFEgAABpRIAEAaESBBACgEQUSAIBGFEgAABpptdvt2vtALi8vx8jISLWWt5f3KZKvl3x58uVt5/Xef//9uHr1avzzP//zvsyX7Od/fkk/5/vKV74Sly9fjlOnTu3LfJvJlydfnnz1tpPPCCQAAI2YiaYiX5589YYln5lo6g1DPjPRyJcjX69hy2cEEgCARhRIAAAaUSABAGhEgQQAoBEFEgCARhRIAAAaUSABAGjETDQV+fLkqzcs+cxEU28Y8pmJRr4c+XoNWz4jkMBT/eEPf4hDhw7FwYMHt1zSPtvZLy3Hjh3Lbt+8bPf1dnu/tOTy/eVf/uUT67v9c7e7X1o+q39+//mf/1l9CgAeMxNNRb48+erJ12vQ87Vardj8J3O/5esmXz35esmXJ1+eEUgAABpRIAEAaESBBACgEQUSAIBGFEgAABpRIAEAaESBBACgETPRVOTLk6+efL0GPV+6sXbxN7Na23/5uslXT75e8uXJl2cEEgCARsxEU5EvT7568vUa9HxmopEvR748+eoNQj4jkAAANKJAAgDQiAIJAEAjCiQAAI0okAAANKJAAgDQiAIJAEAjCiQAAI20lpaWau8lvrKyEocPH67W8h49elR+PXBg6y6a26/7prxpfXV1tXy8vl/3PpvJJ598n12+Y8eOVWsMu8XFxfKr348O+fLkG+x8ZqKpyJcnX71hy5fmgd7izwVDYqt/6Wzm97eXfHny5e33fFvXWgAA6KJAAgDQiAIJAEAjCiTwzH7w1vRTFwAGjwIJ7Mh3vvW1jeX82a/G333zr+Ps10/F+Csnqz0AGDQKJLAr0i0ijhw5Eg/bD6OdluqKPwAGjwIJ7Fgqjw8etMvH6Wta2tU6AIOn1W63a2/otby8HCMjI9Va3l7ep0i+XvLlyZfX5OceOnSo5/5/6RzHdNg6jTx2m//w13H73+7G916fqLYwCNJ9IIt/b1Rr9fz+9pIvT768/Z7PCCSwIw+KMnHv3v34+OOFcv3u3d/F/PyvN0YkARg8ZqKpyJcnX71hy5ebiSaNQKYLZtI5j6lIfv7Fz5Ujj2mEqv3gYcz+8iMjkAPGTDS95MuTr94g5DMCCezI5nMe5+d/tbH+oP2g2gOAQaNAAjsy895s/OT2v8d7738Yt2d/E//689/H3C8/jl/89pNqDwAGjQIJPLN0ePppCwCDR4EEhsrctVa0rs1Va4+tb09fx28uVVs3m4vrrVZc/6BaBRhiCiQwVMZenoy4cqeog5vNxZ0rEZMvj8XY5bWYObv1yeMAw06BBIbLidMxGZfizuaRxA/uFFsm4/SJzkjk4xHIpZh+rVVeedy6dqfaVrk/HeNpe7lcf6KQlqOZ1XP50UyA/qZAAkNmLE5fjbj0L48r39y/XIoz0+eLZ540d200zsVULK6txdrLxfdU29OI5fXnz8VLc8X24rnZq5fi5GvTRd0sKufN8Th5ZTJm0/fcm4qYGHXYGxg4ZqKpyJcnX71hy5ebiaZvfXA9Wm8ej8V3JuJoeW7jjTh+byYmnuuMHt54YTFmzkZMvzYaC2+sxcUT6ZvSaGS1HsX3F21zdu1ip3Sm0cjnF+JCsR4b3985DJ5e72TMxtrl7nran9KoqploniRfnnz1BiGfEUhg+KTD2O/OxJ37acTwRlx6dTxOF+XxSQux8G71MOtSnFw/hP38ubgV87FwfykW7lZPV46/cKZ6BDA4zERTkS9PvnrDli83E03/6owmznxjNsZ/fHLTKGODEciNEcwnPf7+zjODOAK5nc+B399e8uXJl7ff8xmBBIbQ0Tj9jTNxa+JknHu3c/FMr84+l97snNsYH7xd7Fs+UY1gnou3q3Mb03mP6xfSpBHHWxNvdy6quT8dN6qruwEGiQIJDKWjXxyP8uDy1dM9F8+sO3r2rZiKczGaDlO/eTymrlZPFN9x8d5UzI91DmGPTkRM3eucD3n07Eznoprq0HZML26MbgIMCgUSGE7PTcRMulK669Dyk/eBPBoT73SutF57ZyImiuc2yuD695dL5wKcdek1OtvdUxIYTAokAACNKJAAADSiQAIA0IgCCQBAI2aiqciXJ1+9Ycs3UDPR8MzMRNNLvjz56g1CPiOQAAA0Yiaainx58tUbtnyDNRMNz8pMNL3ky5Ov3iDkMwIJAEAjCiQAAI0okAAANKJAAgDQiAIJAEAjCiQAAI0okAAANKJAAgDQSGtpaan2XuIrKytx+PDhai3v0aNH5dcDB7buorn9um9Im9ZXV1fLx+v7bXXTWvnkk++zy3fs2LFqjWG3uLhYfvX70SFfnnyDnc9MNBX58uSrJ1+vQc/X/Qd3v+XrJl89+XrJlydf3ta1FgAAuiiQAAA0okACANCIAgkAQCMKJAAAjSiQAAA0okACANBIq91u194Hcnl5OUZGRqq1vL28T5F8veTLky9Pvnq5fAcPHozib2a1tv/ydZOvnny95MuTL88IJMA2nTp1qnoEMNzMRFORL0++evL1GvR8ZqKRL0e+PPnqDUI+I5AAADSiQAIA0IgCCQBAIwokAACNKJAAADSiQAIA0IgCCQBAI2aiqciXJ189+XoNej4z0ciXI1+efPUGIZ8RSGBbDh06VBaorZa0z3b2S8uxY8ey2zcv23293d4vLbl8yeb13f65290vLXv5zw/ATDQV+fLkqzds+VKB2OLPBUOiezaeOn5/e8mXJ1/efs9nBBIAgEYUSAAAGlEgAQBoRIEEntkP3pp+6gLA4FEggR35zre+trGcP/vV+Ltv/nWc/fqpGH/lZLUHAINGgQR2xerqahw5ciQeth9GOy3VFX8ADB4FEtixVB4fPOjcYDt9TUu7Wgdg8JiJpiJfnnz1hi1fuoF09/3/0jmO6bB1GnnsNj//67g9eze+9/pEtYVBkO4DuXk2njp+f3vJlydf3n7PZwQS2JEHRZm4d+9+fPzxQrl+9+7vyvKYtgMwmMxEU5EvT756w5YvNxNNGoFMF8ykcx5TYfz8i5+L+Q9/XY5QtR88jNlffmQEcsCYiaaXfHny1RuEfEYggR0pz3ksC2M75ud/tXEO5IP2g2oPAAaNAgnsyMx7s/GTf/n3eO/9D+P27G/iX3/++5j75cfxi99+Uu0BwKBRIIFnlg5PP20BYPAokMBwuD8d461WeQ7fE8u1uWqH5uautWL85lK1BjA8FEhgiJyJqXtr5UUgG8vlseo5ALZLgQRInhihvB5PjEt+cP3xiOVr05HGHJdujsfJKxG3JkYfj0Jm9iv2jOnXWjH+2ni5/foH5UaAvqZAAhR18frz5yKmF8tRydmrl+LkegFMxXLsUkzOpRHLxZiKczF6bS6Onp0p9os4U3zPzNmj1X7z1Qjn4/3W3frChfK1L56oNgD0MQUSGCK34tzz1Qjh5lHC+wsxH5NxIRXBwti3p+LMuzNx537nuVuvTsX5svgdjYk3JiOu3HlyhLKw9LOZYr/xOP1cWqv2u7tQjUIWRfOF49UjgP7XWlpaKv6jOH9T2JWVlTh8+HC1lvfo0aPy64EDW3fR3H7pD/jmn53W05y6yfp+3ftsJp988n12+Y4dO1b7s/pCGiF8fibG783ERFnyNkmHnsciZtcuRueMyLm43roRx4t9T/9sPEZ/PB6L70wUtbBQvs5CXCj2jWutuPFCZwQyHdIenbhVfvdjk8Vrno+F10Zj4Y3BGH1Mn7nFxcWNx34/5Ksj32DnMxNNRb48+eoNW77cTDR9ZasCuakUlgVy8773i3L55vHHBXJT2ewpkB9dyFyUk86BHKwCuZ3Pgd/fXvLlyZe33/NtXWsBhsFzx+OluBQ3qoth5n507vHh6OK5M++ei7fLi1+KMvjmpYirp6uRyseOfnE8zly5EdPpsHch3eLn8YU0AINFgQQo6uDFe1MRE6PlCNvJK5Mxuz7i+NxEzMxNxqWxdN7kaJyLqVisRhmPv3Dm8VXY5X4vbZxj+cRrAAwYBRIYDqngrWUOX68rn1+/P+T6uZCVExer7cWyqRSmK7HTtvIq7GTzfhuvcTQm3nH1NTBYFEgAABpRIAEAaESBBACgEQUSAIBGWu12u/aGXsvLyzEyMlKt5e3lfYrk6yVfnnx5TX7uoUOHyotDGG7pCvPi3xvVWj2/v73ky5Mvb7/nMwIJAEAjZqKpyJcnX71hy9f3M9GwK8xE00u+PPnqDUI+I5AAADSiQAIA0IgCCQBAIwokAACNKJAAADSiQAIA0IgCCQBAI2aiqciXJ1+9YctnJhoSM9H0ki9PvnqDkM8IJLBtqTxYhnsBSMxEU5EvT7568vWSL0++PPnqyddLvry9ymcEEgCARhRIAAAaUSABAGhEgQQAoBEFEgCARhRIAAAaUSABAGjETDQV+fLkqydfL/ny5MuTr558veTL26t8RiABAGjETDQV+fLkqydfL/ny5MuTr558veTL26t8RiABAGhEgQQAoBEFEgCARhRIAAAaUSABAGhEgQQAoBEFEgCARhRIAAAaaS0tLdXeS3xlZSUOHz5creU9evSo/HrgwNZdNLdfq9WKzT87ra+urpaP1/fr3mcz+eSTT75Evjz55Evky5NvZ/nMRFORL0++evL1ki9Pvjz56snXS768vcq3da0FAIAuCiQAAI0okAAANKJAAgDQiAIJAEAjCiQAAI0okAAANNJqt9u194FcXl6OkZGRai1vL+9TJF8v+fLky5Ovnny95MuTL0++eoOQzwgkAACNmImmIl+efPXk6yVfnnx58tWTr5d8eXuVzwgkAACNKJAAADSiQAIA0IgCCQBAIwokAACNKJAAADSiQAIA0IiZaCry5clXT75e8uXJlydfPfl6yZe3V/mMQAIA0IiZaCry5clXT75e8uXJlydfPfl6yZe3V/mMQAIA0IgCCQBAIwokAACNKJAAADSiQAIA0IgCCQBAIwokAACNmImmIl+efPXk6yVfnnx58tWTr5d8eXuVzwgkAACNmImmIl+efPXk6yVfnnx58tWTr5d8eXuVzwgkAACNKJAAADSiQAIA0IgCCQBAIwokAACNKJAAADSiQAIA0IgCCQBAI62lpaXae4mvrKzE4cOHq7W8R48elV8PHNi6i+b2a7Vasflnp/XV1dXy8fp+3ftsJp988smXyJcnn3yJfHny7SyfmWgq8uXJV0++XvLlyZcnXz35esmXt1f5tq61AADQRYEEAKARBRIAgEYUSAAAGlEgAQBoRIEEAKARBRIAgEZa7Xa79j6Qy8vLMTIyUq3l7eV9iuTrJV+efHny1ZOvl3x58uXJV28Q8hmBBACgETPRVOTLk6+efL3ky5MvT7568vWSL2+v8hmBBACgEQUSAIBGFEgAABpRIAEAaESBBACgEQUSAIBGFEgAABoxE01Fvjz56snXS748+fLkqydfL/ny9iqfEUgAABoxE01Fvjz56snXS748+fLkqydfL/ny9iqfEUgAABpRIAEAaESBBACgEQUSAIBGFEgAABpRIAEAaESBBACgETPRVOTLk6+efL3ky5MvT7568vWSL2+v8rWKpbZAAgBANzPRVOTLk6+efL3ky5MvT7568vWSL29v8kX8/0swjOhwDI2pAAAAAElFTkSuQmCC&quot; class=&quot;WACImage SCXW161230754 BCX0&quot;&gt;&lt;span style=&quot;-webkit-user-drag: none; -webkit-tap-highlight-color: transparent; margin: 0px; padding: 0px; user-select: text; display: block; position: absolute; transform: rotate(0deg); width: 572px; height: 465px; left: 0px; top: 0px;&quot; class=&quot;WACImageBorder SCXW161230754 BCX0&quot;&gt;&lt;/span&gt;&lt;/span&gt;&lt;span style=&quot;-webkit-user-drag: none; -webkit-tap-highlight-color: transparent; margin: 0px; padding: 0px; user-select: text; color: rgb(0, 0, 0); font-style: normal; font-variant-caps: normal; font-weight: 400; letter-spacing: normal; orphans: 2; text-align: left; text-indent: 0px; text-transform: none; widows: 2; word-spacing: 0px; -webkit-text-stroke-width: 0px; background-color: rgb(255, 255, 255); text-decoration-thickness: initial; text-decoration-style: initial; text-decoration-color: initial; font-size: 12pt; line-height: 20.925px; font-family: Aptos, Aptos_EmbeddedFont, Aptos_MSFontService, sans-serif; font-variant-ligatures: none !important;&quot; class=&quot;TextRun EmptyTextRun SCXW161230754 BCX0&quot; lang=&quot;EN-US&quot; data-contrast=&quot;auto&quot;&gt;&lt;br class=&quot;Apple-interchange-newline&quot;&gt;&#10;&#10;&lt;/span&gt;" style="text;whiteSpace=wrap;html=1;" parent="1" vertex="1">
                    <mxGeometry x="90" y="180" width="670" height="600" as="geometry"/>
                </mxCell>
                <mxCell id="4" value="" style="rounded=0;whiteSpace=wrap;html=1;" parent="1" vertex="1">
                    <mxGeometry x="480" y="220" width="120" height="40" as="geometry"/>
                </mxCell>
                <mxCell id="5" value="" style="rounded=0;whiteSpace=wrap;html=1;" parent="1" vertex="1">
                    <mxGeometry x="120" y="390" width="120" height="40" as="geometry"/>
                </mxCell>
                <mxCell id="6" value="" style="rounded=0;whiteSpace=wrap;html=1;" parent="1" vertex="1">
                    <mxGeometry x="520" y="390" width="120" height="40" as="geometry"/>
                </mxCell>
                <mxCell id="7" value="" style="rounded=0;whiteSpace=wrap;html=1;" parent="1" vertex="1">
                    <mxGeometry x="480" y="340" width="120" height="40" as="geometry"/>
                </mxCell>
                <mxCell id="8" value="" style="rounded=0;whiteSpace=wrap;html=1;" parent="1" vertex="1">
                    <mxGeometry x="480" y="280" width="120" height="40" as="geometry"/>
                </mxCell>
                <mxCell id="9" value="" style="rounded=0;whiteSpace=wrap;html=1;" parent="1" vertex="1">
                    <mxGeometry x="480" y="470" width="120" height="40" as="geometry"/>
                </mxCell>
                <mxCell id="10" value="" style="rounded=0;whiteSpace=wrap;html=1;" parent="1" vertex="1">
                    <mxGeometry x="480" y="530" width="120" height="40" as="geometry"/>
                </mxCell>
            </root>
        </mxGraphModel>
    </diagram>
</mxfile>